# xmcd
#
# Track frame offsets: 
#        200
#        18323
#        40025
#        52033
#        67255
#        90165
#        106133
#        126598
#        142570
#        170838
#        192363
#        215830
#        243138
#        274085
#
# Disc length: 4022 seconds
#
# Revision: 0
# Processed by: cddbd v1.5.2PL0 Copyright (c) Steve Scherf et al.
# Submitted via: ExactAudioCopyFreeDBPlugin 1.0
#
DISCID=c70fb40e
DTITLE=Martha Reeves - We meet again (1978) - Gotta keep moving (1980)
DYEAR=1993
DGENRE=Soul
TTITLE0=Free again
TTITLE1=You're like sunshine
TTITLE2=I feel a magic
TTITLE3=One line from every love song
TTITLE4=Love don't come no stranger
TTITLE5=What are you doing the rest of your life
TTITLE6=Dedicated to be Your woman
TTITLE7=Special to me
TTITLE8=Skating in the streets
TTITLE9=That's what I want
TTITLE10=Really like your rap
TTITLE11=Gotta keep moving
TTITLE12=Then you came
TTITLE13=If it wasn't for my baby
EXTD=
EXTT0=
EXTT1=
EXTT2=
EXTT3=
EXTT4=
EXTT5=
EXTT6=
EXTT7=
EXTT8=
EXTT9=
EXTT10=
EXTT11=
EXTT12=
EXTT13=
PLAYORDER=
